<svg width="18" height="18" viewBox="0 0 18 18" fill="none" xmlns="http://www.w3.org/2000/svg">
<path d="M3 8.25C3 8.93944 3.1358 9.62213 3.39963 10.2591C3.66347 10.896 4.05018 11.4748 4.53769 11.9623C5.0252 12.4498 5.60395 12.8365 6.24091 13.1004C6.87787 13.3642 7.56056 13.5 8.25 13.5C8.93944 13.5 9.62213 13.3642 10.2591 13.1004C10.896 12.8365 11.4748 12.4498 11.9623 11.9623C12.4498 11.4748 12.8365 10.896 13.1004 10.2591C13.3642 9.62213 13.5 8.93944 13.5 8.25C13.5 7.56056 13.3642 6.87787 13.1004 6.24091C12.8365 5.60395 12.4498 5.0252 11.9623 4.53769C11.4748 4.05018 10.896 3.66347 10.2591 3.39963C9.62213 3.1358 8.93944 3 8.25 3C7.56056 3 6.87787 3.1358 6.24091 3.39963C5.60395 3.66347 5.0252 4.05018 4.53769 4.53769C4.05018 5.0252 3.66347 5.60395 3.39963 6.24091C3.1358 6.87787 3 7.56056 3 8.25Z" stroke="black" stroke-width="1.5" stroke-linecap="round" stroke-linejoin="round"/>
<path d="M15 15L12 12" stroke="black" stroke-width="1.5" stroke-linecap="round" stroke-linejoin="round"/>
</svg>
