<svg width="34" height="38" viewBox="0 0 34 38" fill="none" xmlns="http://www.w3.org/2000/svg">
<path opacity="0.6" d="M11.5924 27.9998C11.2791 28.001 10.9738 27.9035 10.7213 27.7216C10.5148 27.5736 10.3469 27.3798 10.2314 27.156C10.116 26.9322 10.0561 26.6848 10.0568 26.434C10.0568 24.3752 10.0203 16.812 10 13.3186C9.99613 12.4215 10.3528 11.559 10.9927 10.9181C11.2814 10.6282 11.6261 10.3978 12.0067 10.2401C12.3872 10.0825 12.796 10.0009 13.2091 10H20.79C21.6623 10.0219 22.4902 10.3823 23.0918 11.0023C23.6935 11.6222 24.0198 12.451 23.9991 13.3067C23.9991 16.7763 23.9991 24.9873 23.9991 26.3266C23.9953 26.5728 23.9333 26.8147 23.818 27.0333C23.7027 27.2519 23.5372 27.4413 23.3346 27.5865C23.1457 27.7204 22.9274 27.8088 22.6972 27.8447C22.4671 27.8806 22.2315 27.863 22.0096 27.7932C21.9371 27.7702 21.8697 27.7338 21.8111 27.6859C19.9189 26.1677 17.8119 24.5064 17.0786 24.0175C16.3452 24.5382 14.2058 26.2432 12.2853 27.817C12.2282 27.8649 12.1621 27.9014 12.0908 27.9243C11.9301 27.9767 11.7617 28.0022 11.5924 27.9998ZM13.2091 11.1923C12.9559 11.1932 12.7055 11.2435 12.4725 11.3404C12.2394 11.4373 12.0284 11.5788 11.8517 11.7567C11.4383 12.1781 11.2099 12.7417 11.2156 13.3265C11.2156 16.8081 11.2764 24.3752 11.2723 26.4419C11.2712 26.5039 11.2849 26.5654 11.3124 26.6213C11.3398 26.6772 11.3802 26.726 11.4303 26.7638C11.4799 26.7985 11.5396 26.8166 11.6005 26.8155C16.5842 22.7179 16.803 22.7179 17.0664 22.7179C17.3298 22.7179 17.5324 22.7179 22.4432 26.6923C22.502 26.6917 22.5589 26.6722 22.6052 26.6366C22.6583 26.5968 22.7004 26.5448 22.728 26.4852C22.7555 26.4256 22.7677 26.3602 22.7633 26.2948C22.7876 24.9674 22.7876 16.7564 22.7835 13.2987C22.8011 12.7608 22.6016 12.2379 22.2283 11.8435C21.855 11.4491 21.3382 11.2151 20.79 11.1923H13.2091Z" fill="black"/>
</svg>
