<svg width="19" height="18" viewBox="0 0 19 18" fill="none" xmlns="http://www.w3.org/2000/svg">
<path d="M7.50602 1.38853C8.11849 -0.462827 10.7373 -0.462823 11.3498 1.38853L12.2078 3.98211C12.482 4.81094 13.2567 5.37063 14.1297 5.37063H16.8277C18.7975 5.37063 19.607 7.89859 18.0035 9.04277L15.8839 10.5552C15.1616 11.0707 14.8592 11.9964 15.1379 12.8389L15.9622 15.3307C16.5771 17.1893 14.4581 18.7514 12.8645 17.6143L10.6037 16.0011C9.90022 15.4991 8.95558 15.4991 8.25207 16.0011L5.99129 17.6143C4.3977 18.7514 2.27869 17.1893 2.89357 15.3307L3.71793 12.8389C3.99663 11.9964 3.69419 11.0707 2.97188 10.5552L0.852296 9.04277C-0.751168 7.89859 0.0582958 5.37063 2.02813 5.37063H4.7261C5.59912 5.37063 6.37379 4.81094 6.64799 3.98211L7.50602 1.38853Z" fill="url(#paint0_linear_1286_53578)"/>
<defs>
<linearGradient id="paint0_linear_1286_53578" x1="0.610833" y1="-2.05909" x2="15.4319" y2="24.1507" gradientUnits="userSpaceOnUse">
<stop stop-color="#F2D26A"/>
<stop offset="1" stop-color="#EEAF50"/>
</linearGradient>
</defs>
</svg>
