<svg width="36" height="36" viewBox="0 0 36 36" fill="none" xmlns="http://www.w3.org/2000/svg">
<g opacity="0.5" filter="url(#filter0_b_1286_53222)">
<circle cx="18" cy="18" r="18" fill="#EFF6FD"/>
<circle cx="18" cy="18" r="17.5" stroke="#E0E0E0"/>
</g>
<g clip-path="url(#clip0_1286_53222)">
<path d="M17.909 10.1516C18.3067 10.1516 18.6882 10.3096 18.9694 10.5909C19.2507 10.8721 19.4087 11.2536 19.4088 11.6513C20.2702 12.0585 21.0046 12.6925 21.5333 13.4853C22.0619 14.2782 22.3647 15.1999 22.4094 16.1517L22.4083 18.4014C22.4648 18.8677 22.6299 19.3143 22.8905 19.7051C23.1511 20.096 23.4998 20.4201 23.9086 20.6516L11.9099 20.6521C12.3185 20.4207 12.6671 20.0965 12.9276 19.7058C13.1881 19.3151 13.3532 18.8686 13.4097 18.4024L13.4086 16.1517C13.4533 15.1999 13.7561 14.2782 14.2847 13.4853C14.8133 12.6925 15.5477 12.0585 16.4092 11.6513C16.4093 11.2536 16.5673 10.8721 16.8486 10.5909C17.1298 10.3096 17.5112 10.1516 17.909 10.1516Z" stroke="black" stroke-width="1.5" stroke-linecap="round" stroke-linejoin="round"/>
<path d="M15.6588 20.6517L15.6588 21.4016C15.6588 21.9984 15.8959 22.5707 16.3179 22.9927C16.7399 23.4147 17.3122 23.6518 17.909 23.6518C18.5058 23.6518 19.0782 23.4147 19.5002 22.9927C19.9222 22.5707 20.1592 21.9984 20.1592 21.4016V20.6517" stroke="black" stroke-width="1.5" stroke-linecap="round" stroke-linejoin="round"/>
</g>
<defs>
<filter id="filter0_b_1286_53222" x="-66.4207" y="-66.4207" width="168.841" height="168.841" filterUnits="userSpaceOnUse" color-interpolation-filters="sRGB">
<feFlood flood-opacity="0" result="BackgroundImageFix"/>
<feGaussianBlur in="BackgroundImageFix" stdDeviation="33.2103"/>
<feComposite in2="SourceAlpha" operator="in" result="effect1_backgroundBlur_1286_53222"/>
<feBlend mode="normal" in="SourceGraphic" in2="effect1_backgroundBlur_1286_53222" result="shape"/>
</filter>
<clipPath id="clip0_1286_53222">
<rect width="18" height="18" fill="white" transform="translate(9 9)"/>
</clipPath>
</defs>
</svg>
