<svg width="7" height="7" viewBox="0 0 7 7" fill="none" xmlns="http://www.w3.org/2000/svg">
<path fill-rule="evenodd" clip-rule="evenodd" d="M6.81093 3.06213C5.90936 2.70231 4.55483 1.89891 3.78288 0.177979C3.73329 0.0677095 3.62571 0 3.49985 0C3.37371 0 3.26612 0.0677095 3.21683 0.177979C2.44488 1.89891 1.09035 2.70231 0.188782 3.06213C0.0719168 3.10884 0 3.21192 0 3.3327C0 3.45347 0.0719168 3.55655 0.188782 3.60326C1.09035 3.96309 2.44488 4.76648 3.21683 6.48741C3.26612 6.59768 3.37371 6.66539 3.49985 6.66539C3.62571 6.66539 3.73329 6.59768 3.78288 6.48741C4.55483 4.76648 5.90936 3.96309 6.81093 3.60326C6.92779 3.55655 7 3.45347 7 3.3327C7 3.21192 6.92808 3.10884 6.81093 3.06213Z" fill="#AE61A3"/>
</svg>
