<svg width="15" height="10" viewBox="0 0 15 10" fill="none" xmlns="http://www.w3.org/2000/svg">
<g opacity="0.8">
<path d="M7.50107 7.66555C7.41234 7.66525 7.32444 7.64828 7.24196 7.61555L2.55525 5.77678V8.32697C2.55537 8.36981 2.56759 8.41174 2.59052 8.44794C2.61344 8.48413 2.64612 8.51311 2.6848 8.53153C4.1758 9.27003 5.81455 9.66165 7.47835 9.67707C9.15335 9.66069 10.8038 9.27253 12.3105 8.54062C12.35 8.52236 12.3834 8.49317 12.4067 8.45651C12.4301 8.41985 12.4425 8.37726 12.4424 8.33379V5.77678L7.74882 7.61782C7.67002 7.64932 7.58594 7.66552 7.50107 7.66555Z" fill="black"/>
<path d="M14.8562 2.86817L7.58295 0.0156813C7.52962 -0.0052271 7.47036 -0.0052271 7.41703 0.0156813L0.143747 2.86817C0.101353 2.88492 0.0649759 2.91404 0.0393416 2.95174C0.0137073 2.98943 0 3.03396 0 3.07955C0 3.12513 0.0137073 3.16967 0.0393416 3.20736C0.0649759 3.24506 0.101353 3.27417 0.143747 3.29093L7.41703 6.14342C7.4437 6.15434 7.4723 6.15975 7.50112 6.15933C7.52919 6.15957 7.55702 6.15416 7.58295 6.14342L13.5107 3.81824V6.57981C13.4011 6.6195 13.3038 6.68716 13.2284 6.77607C13.1531 6.86498 13.1023 6.97206 13.0811 7.08667L12.8902 8.09811C12.8843 8.13094 12.8858 8.16466 12.8944 8.19687C12.903 8.22908 12.9187 8.25899 12.9402 8.28449C12.9615 8.31014 12.9883 8.33078 13.0186 8.34492C13.0488 8.35906 13.0818 8.36637 13.1152 8.36631H14.3676C14.4009 8.36637 14.4339 8.35906 14.4642 8.34492C14.4944 8.33078 14.5212 8.31014 14.5426 8.28449C14.5641 8.25899 14.5797 8.22908 14.5883 8.19687C14.597 8.16466 14.5984 8.13094 14.5926 8.09811L14.4016 7.08667C14.3786 6.97181 14.3263 6.86484 14.2499 6.77606C14.1734 6.68728 14.0754 6.61969 13.9652 6.57981V3.62504L14.8562 3.27502C14.8986 3.25826 14.935 3.22915 14.9606 3.19145C14.9863 3.15376 15 3.10922 15 3.06364C15 3.01805 14.9863 2.97352 14.9606 2.93583C14.935 2.89813 14.8986 2.86901 14.8562 2.85226V2.86817Z" fill="black"/>
</g>
</svg>
