<svg width="12" height="13" viewBox="0 0 12 13" fill="none" xmlns="http://www.w3.org/2000/svg">
<path fill-rule="evenodd" clip-rule="evenodd" d="M10.4373 12.9774C10.5948 13.009 10.7574 13.0074 10.9142 12.9729C11.0709 12.9384 11.2183 12.8718 11.3464 12.7774C11.4745 12.683 11.5802 12.5631 11.6567 12.4257C11.7331 12.2883 11.7784 12.1366 11.7895 11.9808L11.9977 9.5816C12.0109 9.43985 11.968 9.29852 11.8778 9.18638C11.7875 9.07423 11.6567 8.99968 11.5119 8.9779C11.0855 8.91282 10.6647 8.8168 10.2531 8.69063C9.84223 8.56404 9.44173 8.40757 9.05503 8.22254C8.95458 8.17202 8.84078 8.15213 8.72851 8.16548C8.61623 8.17883 8.51073 8.22479 8.42579 8.29735L8.07683 8.58361C8.06972 8.5902 8.06217 8.59633 8.05423 8.60195C7.75718 8.83949 7.3763 8.9548 6.99292 8.92325C6.60954 8.89171 6.25405 8.71581 6.00238 8.43311C5.99551 8.42634 5.98914 8.4191 5.98334 8.41145L3.95231 6.0746C3.70072 5.78474 3.57774 5.40979 3.61035 5.03199C3.64296 4.65418 3.8285 4.30436 4.12627 4.05925L4.44683 3.79639C4.53616 3.7265 4.60119 3.63161 4.63311 3.52459C4.66502 3.41758 4.66228 3.30362 4.62526 3.19816C4.37206 2.40982 4.24068 1.58934 4.2354 0.763537C4.23524 0.623014 4.18053 0.487719 4.08219 0.38465C3.98386 0.281582 3.84913 0.21832 3.7049 0.207488L1.23955 0.00528882C1.07819 -0.0101621 0.915288 0.00833692 0.761944 0.059527C0.6086 0.110717 0.468408 0.193396 0.350911 0.301938C0.233414 0.41048 0.141369 0.542337 0.0810401 0.688534C0.0207114 0.834731 -0.0064847 0.991838 0.00130267 1.14916C0.102713 3.97735 1.19257 6.68769 3.09142 8.8339C4.98475 10.9852 7.57543 12.4464 10.4373 12.9774Z" fill="white"/>
</svg>
